HIERARCHY
ROOT Hips
{
 OFFSET 0.000000 0.000000 0.000000
 CHANNELS 6 Xposition Yposition Zposition Yrotation Xrotation Zrotation
 JOINT Chest
 {
  OFFSET 0.000000 9.581000 -0.001100
  CHANNELS 3 Yrotation Xrotation Zrotation
  JOINT Chest2
  {
   OFFSET 0.000000 9.561100 0.002200
   CHANNELS 3 Yrotation Xrotation Zrotation
   JOINT Chest3
   {
    OFFSET 0.000000 9.521100 0.000000
    CHANNELS 3 Yrotation Xrotation Zrotation
    JOINT Chest4
    {
     OFFSET 0.000000 9.511400 0.000000
     CHANNELS 3 Yrotation Xrotation Zrotation
     JOINT Neck
     {
      OFFSET 0.000000 14.375100 0.000000
      CHANNELS 3 Yrotation Xrotation Zrotation
      JOINT Head
      {
       OFFSET 0.000000 8.901200 0.004600
       CHANNELS 3 Yrotation Xrotation Zrotation
       End Site
       {
        OFFSET 0.000000 16.962200 0.002400
       }
      }
     }
     JOINT RightCollar
     {
      OFFSET -2.920100 9.518800 0.000000
      CHANNELS 3 Yrotation Xrotation Zrotation
      JOINT RightShoulder
      {
       OFFSET -13.664500 0.000000 0.000000
       CHANNELS 3 Yrotation Xrotation Zrotation
       JOINT RightElbow
       {
        OFFSET 0.000000 -29.999200 0.000000
        CHANNELS 3 Yrotation Xrotation Zrotation
        JOINT RightWrist
        {
         OFFSET 0.000000 -24.253600 0.000000
         CHANNELS 3 Yrotation Xrotation Zrotation
         End Site
         {
          OFFSET 0.000000 -17.918900 0.000000
         }
        }
       }
      }
     }
     JOINT LeftCollar
     {
      OFFSET 2.920100 9.518800 0.000000
      CHANNELS 3 Yrotation Xrotation Zrotation
      JOINT LeftShoulder
      {
       OFFSET 13.664500 0.000000 0.000000
       CHANNELS 3 Yrotation Xrotation Zrotation
       JOINT LeftElbow
       {
        OFFSET 0.000000 -29.999200 0.000000
        CHANNELS 3 Yrotation Xrotation Zrotation
        JOINT LeftWrist
        {
         OFFSET 0.000000 -24.253600 0.000000
         CHANNELS 3 Yrotation Xrotation Zrotation
         End Site
         {
          OFFSET 0.000000 -17.918900 0.000000
         }
        }
       }
      }
     }
    }
   }
  }
 }
 JOINT RightHip
 {
  OFFSET -7.797300 0.005300 0.000500
  CHANNELS 3 Yrotation Xrotation Zrotation
  JOINT RightKnee
  {
   OFFSET 0.000000 -40.663400 -0.000500
   CHANNELS 3 Yrotation Xrotation Zrotation
   JOINT RightAnkle
   {
    OFFSET 0.000000 -39.523700 -0.000900
    CHANNELS 3 Yrotation Xrotation Zrotation
    JOINT RightToe
    {
     OFFSET 0.000000 -6.418000 14.485300
     CHANNELS 3 Yrotation Xrotation Zrotation
     End Site
     {
      OFFSET 0.000000 -1.465200 6.326400
     }
    }
   }
  }
 }
 JOINT LeftHip
 {
  OFFSET 7.797300 0.005300 0.000500
  CHANNELS 3 Yrotation Xrotation Zrotation
  JOINT LeftKnee
  {
   OFFSET 0.000000 -40.663400 -0.000500
   CHANNELS 3 Yrotation Xrotation Zrotation
   JOINT LeftAnkle
   {
    OFFSET 0.000000 -39.523700 -0.000900
    CHANNELS 3 Yrotation Xrotation Zrotation
    JOINT LeftToe
    {
     OFFSET 0.000000 -6.418000 14.485300
     CHANNELS 3 Yrotation Xrotation Zrotation
     End Site
     {
      OFFSET 0.000000 -1.465200 6.326400
     }
    }
   }
  }
 }
}
MOTION
Frames: 8
Frame Time: 0.008333
-14.766130 126.897473 13.934768 166.164065 -48.958140 -5.025672 3.304009 25.348958 5.498807 0.372513 4.176277 0.781777 0.596705 6.679133 1.266932 2.525906 20.851329 4.346091 6.665610 21.013060 -2.367629 7.830974 -3.011961 -4.125333 -1.071122 3.141405 2.092842 -2.652724 -5.792652 -9.693338 -116.633409 -66.100888 158.645057 8.164029 5.067001 0.291084 -10.527704 -0.131405 -0.431518 7.975022 -13.192502 4.259004 88.389543 -58.098584 -123.328647 1.115190 -17.968594 7.610788 -11.900051 -9.949727 3.481426 -175.815499 82.550977 -164.976928 10.606481 -5.952123 -0.657667 0.001186 -0.003998 0.000526 -3.693180 -24.639876 -1.933908 -0.018775 74.968692 -0.337292 0.996489 -5.075112 -3.178516 -0.000353 -0.001040 -0.000156
-14.765722 126.897874 13.933434 166.167151 -48.951687 -5.034076 3.290821 25.357567 5.502341 0.376504 4.173621 0.780584 0.582697 6.695663 1.271649 2.481756 20.893232 4.358250 6.690154 20.971335 -2.414011 7.838419 -3.026184 -4.145579 -1.023564 3.090569 2.049803 -2.625894 -5.804713 -9.700569 -116.516979 -66.098431 158.601270 8.173439 5.065544 0.290287 -10.500314 -0.220455 -0.481561 7.577382 -13.169646 4.346608 87.779484 -58.210380 -123.048589 0.888740 -17.580649 7.245326 -11.898485 -9.946906 3.481179 -175.813607 82.554082 -164.963973 10.615848 -5.957752 -0.665708 0.000071 -0.002306 0.000032 -3.696880 -24.644030 -1.929978 -0.024064 74.974161 -0.337721 1.002765 -5.086634 -3.176241 -0.000094 0.000032 -0.000042
-14.765717 126.897990 13.932237 166.161686 -48.943364 -5.033067 3.290246 25.353864 5.504394 0.360542 4.190911 0.784613 0.580524 6.703061 1.271322 2.469753 20.900662 4.357628 6.668789 20.972857 -2.419807 7.857281 -3.054643 -4.185124 -1.003880 3.066379 2.028409 -2.601858 -5.813100 -9.703273 -116.398274 -66.091223 158.556315 8.183966 5.068764 0.283716 -10.513102 -0.274727 -0.515569 7.194170 -13.148667 4.435316 87.168694 -58.327332 -122.767633 0.674827 -17.202773 6.893635 -11.896940 -9.950387 3.481806 -175.821045 82.553905 -164.966422 10.619526 -5.962079 -0.673491 0.000098 -0.002257 0.000043 -3.693161 -24.649188 -1.929249 -0.026853 74.975882 -0.335265 1.003960 -5.095386 -3.174556 -0.000399 0.000888 -0.000177
-14.765774 126.897444 13.931626 166.158949 -48.929961 -5.033984 3.274698 25.363963 5.503020 0.358148 4.194066 0.785304 0.579217 6.707451 1.270617 2.458911 20.908693 4.356387 6.666042 20.958013 -2.435555 7.869859 -3.071688 -4.202568 -0.985744 3.040444 2.009359 -2.570476 -5.820968 -9.710021 -116.309360 -66.080945 158.516983 8.183064 5.071516 0.286197 -10.517842 -0.323017 -0.543285 6.807170 -13.136958 4.517644 86.548817 -58.450384 -122.477584 0.472572 -16.844847 6.559872 -11.897979 -9.960099 3.485728 -175.835290 82.550847 -164.977374 10.618066 -5.969725 -0.676450 0.000252 -0.001989 0.000112 -3.694913 -24.661926 -1.929186 -0.023751 74.979757 -0.328947 1.010080 -5.102850 -3.169751 -0.000500 0.000940 -0.000221
-14.765930 126.897336 13.930663 166.157354 -48.920113 -5.034249 3.245448 25.396531 5.494913 0.372700 4.178766 0.784084 0.584961 6.697822 1.268985 2.441335 20.930355 4.358210 6.662817 20.942915 -2.449541 7.847418 -3.089381 -4.214919 -0.963301 3.009844 1.993533 -2.508422 -5.825391 -9.718780 -116.245159 -66.074770 158.463273 8.183334 5.071094 0.289121 -10.526211 -0.369584 -0.568759 6.426493 -13.128410 4.598374 85.914006 -58.575852 -122.177361 0.275930 -16.515245 6.250857 -11.899495 -9.965081 3.485005 -175.876813 82.547000 -165.014439 10.616085 -5.979716 -0.674874 0.001195 -0.001569 0.000530 -3.697343 -24.672023 -1.931202 -0.015690 74.986524 -0.316344 1.012437 -5.110148 -3.171550 -0.000475 0.000500 -0.000210
-14.765617 126.897400 13.929744 166.148995 -48.912878 -5.031910 3.237975 25.410290 5.492269 0.367962 4.180807 0.787701 0.593141 6.689730 1.266878 2.426321 20.952110 4.358199 6.661250 20.924835 -2.459668 7.847954 -3.110064 -4.225632 -0.954685 2.988378 1.985254 -2.457589 -5.838580 -9.725660 -116.169557 -66.070502 158.420993 8.201965 5.071277 0.262513 -10.527223 -0.412607 -0.588202 6.045470 -13.122876 4.676360 85.272261 -58.696852 -121.873447 0.087384 -16.211241 5.965827 -11.896208 -9.968759 3.488587 -175.913035 82.545683 -165.048429 10.615830 -5.985353 -0.675125 0.001058 -0.001440 0.000469 -3.696761 -24.680015 -1.930415 -0.023400 74.993374 -0.318376 1.019106 -5.116317 -3.176752 -0.000144 -0.000222 -0.000064
-14.765168 126.896757 13.929661 166.145502 -48.900238 -5.034944 3.227746 25.418751 5.491382 0.368572 4.184675 0.786290 0.572798 6.723911 1.270396 2.440210 20.922304 4.352379 6.659874 20.909105 -2.459993 7.851328 -3.137739 -4.231724 -0.944659 2.973937 1.979881 -2.413966 -5.851228 -9.733734 -116.093601 -66.065539 158.376871 8.197690 5.068751 0.285629 -10.516789 -0.442452 -0.598217 5.653860 -13.121933 4.748524 84.632771 -58.811724 -121.568835 -0.091382 -15.926746 5.703371 -11.895841 -9.978523 3.495496 -175.931415 82.543879 -165.063753 10.616450 -5.989134 -0.674240 0.000366 -0.001990 0.000162 -3.700057 -24.694582 -1.926340 -0.022685 75.001517 -0.311926 1.018806 -5.120946 -3.180392 0.000149 -0.000133 0.000066
-14.763776 126.895977 13.930204 166.132804 -48.887511 -5.037075 3.226095 25.425334 5.497313 0.366136 4.189963 0.786677 0.577069 6.721500 1.271376 2.430040 20.938526 4.351775 6.670437 20.877630 -2.468772 7.859170 -3.177746 -4.217370 -0.924482 2.950394 1.964491 -2.394663 -5.864222 -9.731622 -116.012732 -66.060545 158.345912 8.189872 5.069411 0.305125 -10.528362 -0.489556 -0.622236 5.289696 -13.118492 4.835624 83.990518 -58.921489 -121.259996 -0.267072 -15.662368 5.464207 -11.890865 -9.987867 3.508939 -175.900264 82.541417 -165.027372 10.622083 -5.992181 -0.676144 0.000113 -0.001520 0.000050 -3.699145 -24.709683 -1.913224 -0.069436 75.013935 -0.355132 1.033073 -5.129970 -3.180153 0.000046 0.000657 0.000020
